<?xml version="1.0" encoding="utf-8"?><svg xmlns="http://www.w3.org/2000/svg" fill="#758694" viewBox="0 0 90 281"><path fill="%23000" d="M20.32 186.52c.032.088.432 3.072.632 4.76.216 1.816.232 2.512.088 4.16-.088.936-.128 1.92-.104 2.456.024.56 0 1.144-.064 1.56a8.473 8.473 0 0 0-.112 1.2c0 .704.512 8.472.72 10.864.576 6.632 2.12 16.84 3.848 25.48.224 1.096.56 2.88.76 3.96.592 3.24.928 4.44 1.768 6.28.24.528.688 1.568 1 2.32.304.744.584 1.392.624 1.432.088.088.216-.624.28-1.568.04-.616.096-.84.232-1.04.216-.32.344-.328.56-.04.136.184.176.384.216 1.12.056.872.072.936.592 2.216.296.728.544 1.328.552 1.336.016.016 1.568-.536 1.624-.576.016-.008-.016-.208-.064-.448-.096-.464 0-.912.184-.856.048.016.344.512.656 1.088.312.584.72 1.248.904 1.488.368.464.928.88 1.384 1.016.272.08.32.064.792-.264.488-.336.504-.352.464-.648-.024-.184-.176-.48-.408-.792-.296-.4-.368-.56-.368-.824 0-.184.024-.352.048-.376.024-.032.44.088.912.264l.872.304.36-.656c.552-1.016.624-1.264.672-2.36.032-.88.048-.976.184-.976.08 0 .184.064.224.144.04.08.352.448.688.824.76.84.944 1.144 1.16 1.952.192.744.56 1.336 1.12 1.8.208.176.408.32.44.32.04 0 .04-.352.016-.784a87.897 87.897 0 0 1-.104-1.584c-.056-.816.008-1.712.12-1.712.192 0 .744 2.016.616 2.224-.056.096.104 1.432.28 2.264.2.968.696 2.568.776 2.52.032-.024.232-.376.44-.784.52-1.024.728-2.224.728-4.224.008-1.312-.008-1.44-.208-2-.184-.536-.2-.648-.12-.984.072-.344.064-.4-.096-.6-.312-.392-.416-.744-.496-1.688-.088-1.08-.024-1.432.344-1.88.136-.168.256-.28.272-.264.04.04.696 2.704 1.12 4.496.368 1.608.408 1.704.672 1.84.128.064.264.12.304.12.032 0 .144-.344.248-.768.104-.424.208-.736.24-.696.032.032.2.24.368.448.168.208.336.368.376.36.04-.016.192-.24.328-.504.232-.44.28-.48.544-.504.6-.048.784.352.792 1.744 0 .704.136 1.608.264 1.728.056.056.52-1.984.728-3.192.24-1.384.416-3.04.496-4.6.056-1.112.056-1.136.208-1 .256.232.608 1.08.712 1.704.12.744.048 1.952-.176 3.16-.24 1.304-.256 1.576-.112 1.76.12.152.12.152.272 0 .12-.128.296-.96.832-3.96.376-2.088.704-3.952.728-4.144a2.87 2.87 0 0 1 .28-.76c.584-1.032.776-2.296.704-4.496-.048-1.4-.272-4.632-.784-11.232-.232-3.032-.24-3.256-.12-3.512.072-.144.176-.256.224-.24.16.056.208.36.216 1.304.016 1.216.128 2.464.456 4.8.28 2.056.408 2.6.712 3.08.2.312.816.928.872.872.032-.032.368-5.224.368-5.696 0-.192.032-.216.248-.216.176 0 .328.08.512.264.248.248.264.296.32 1.088.032.456.032 1.696 0 2.76-.04 1.568-.024 2.384.112 4.368.424 6.144 1.176 15.248 1.296 15.72.048.176.184.464.304.64.712 1.016.832 1.568 1.048 4.84.088 1.384.184 2.824.208 3.2.048.68.264 1.36.432 1.36.192 0 .816-.688 1.048-1.16.224-.456.264-.656.432-2.288.112-.984.2-2.28.2-2.872 0-1.168.056-1.776.36-4.16.104-.856.264-2.208.36-2.992.168-1.512.296-1.904.616-1.952.152-.024.16.024.216 1.16.032.648.128 2.192.216 3.424.088 1.232.192 3.008.224 3.944.04.936.096 1.728.12 1.752.024.024.104-.088.168-.248.096-.224.12-.528.104-1.232-.016-.512.024-1.288.08-1.72.056-.424.136-1.384.168-2.12.064-1.288.168-1.832.344-1.72.192.112.328.688.384 1.664.04.568.112 1.144.16 1.28.088.224.096.232.176.08.056-.088.12-.624.144-1.2.04-.752.096-1.12.2-1.32.152-.304.352-.56.44-.56.032 0 .096.568.152 1.256.136 1.808.16 1.944.336 1.944.176 0 .168.04.44-2.84.112-1.192.304-3.08.432-4.2s.288-2.704.36-3.52c.216-2.608.432-3.976.72-4.664.064-.168.152-.296.184-.296.088 0 .44 3.744.384 4.08-.024.152-.16 1.608-.296 3.24-.272 3.256-.272 4.28.008 4.28.384 0 .592-1.424 1.36-9.36.928-9.584 1.024-10.52 1.48-14.64.64-5.84.832-8.28 1.16-14.6.256-5.056.312-7.032.408-15.12.096-7.168.088-7.808-.04-9.56-.08-1.032-.16-1.896-.176-1.912-.064-.072-.28.088-.344.248-.032.104-.096 1.08-.12 2.184-.16 5.376-.272 7.68-.392 7.976-.144.344-.368.48-.712.448-.2-.016-.264-.072-.312-.248-.2-.752-.232-2.464-.232-12.448 0-5.792-.04-14.616-.08-19.608-.136-16.032-.256-32.552-.28-40.36-.024-7.616-.04-7.992-.32-9.224-.096-.416-.104-.976-.04-3.56.04-1.68.08-6.624.08-10.976 0-5.184.032-8.432.096-9.4.08-1.28.072-1.648-.04-2.72-.096-.856-.136-1.928-.136-3.456 0-1.96-.24-8.728-.48-13.744-.232-4.68-.496-8.408-.872-12.32-.272-2.776-.296-3.112-.448-7.04-.128-3.216-.224-4.624-.408-6.08-.064-.504-.152-1.816-.2-2.92-.072-1.656-.112-2.048-.232-2.28l-.144-.28-.064.32c-.104.504-.072 2.656.04 3.36.136.816.136 1.824.016 2.28l-.104.352-.152-.432c-.296-.816-.96-3.232-1.112-4.04-.08-.44-.208-1.224-.28-1.744-.112-.856-.416-2.008-.592-2.28-.04-.072-.088.224-.128.784-.048.752-.08.92-.232 1.096-.144.168-.224.2-.392.152-.12-.024-.248-.112-.288-.192-.168-.32-.336-1.48-.528-3.704-.24-2.864-.248-2.904-.496-3.192-.376-.456-.416-.368-.408 1.056.008 1.232-.104 2.248-.264 2.344-.096.064-.552-.36-.704-.672-.272-.536-.464-1.584-.968-5.16-.288-2.096-.336-2.288-.648-2.64-.232-.272-.832-.488-1.072-.4-.136.056-.152-.136-.416-4.144-.232-3.608-.248-3.68-.512-2.624-.088.352-.104 1.28-.088 4.776.032 4.616-.008 5.224-.312 5.224-.192 0-.2-.048-.352-1.92a90.89 90.89 0 0 0-.28-2.76 41.357 41.357 0 0 1-.2-2.32c-.056-1.256-.144-1.936-.336-2.632l-.136-.472-.12.312c-.112.272-.128.984-.104 6.152.032 6.32.048 6.008-.424 8.96-.104.608-.12 1.688-.104 6.128.016 4.88 0 5.416-.12 5.64a.598.598 0 0 1-.696.312c-.304-.096-.528-1.144-.64-3-.136-2.224-.232-3.368-.336-3.8l-.096-.4-.064.32c-.032.176-.08 1.384-.096 2.688-.032 1.96-.056 2.416-.168 2.696-.08.184-.152.336-.168.336-.024 0-.32-.144-.672-.32l-.64-.32-.008 1.896c0 2.56-.056 2.824-.568 2.944-.4.104-.424-.008-.944-4.528-.6-5.28-.944-8.024-1.056-8.432a2.99 2.99 0 0 0-.224-.6c-.152-.288-.64-.808-.64-.672 0 .04.072.92.16 1.952.096 1.032.192 2.88.216 4.096l.048 2.224h-.232c-.416-.008-.872-.272-1.032-.6-.192-.424-.336-1.456-.448-3.264-.08-1.432-.296-3.296-.88-7.776-.256-1.944-.296-2.992-.16-4.52.064-.712.04-1.168-.16-3.16-.32-3.144-.352-3.416-.504-3.704-.296-.576-.304-.48-.28 3.552l.016 3.912-.208.92c-.112.504-.336 1.496-.496 2.2-.36 1.608-.344 1.56-.504 1.56-.112 0-.216-.24-.472-1.024-.448-1.352-.504-1.752-.48-3.216.008-1.04-.008-1.32-.136-1.72-.136-.408-.152-.672-.136-1.84.024-1.56-.072-2.152-.528-3.184-.256-.576-.28-.72-.344-1.8-.04-.648-.08-1.576-.08-2.064 0-1.088-.104-1.68-.336-1.928-.136-.144-1.016-.504-1.232-.504-.016 0-.032.576-.032 1.28 0 .704.024 1.28.048 1.28.032 0 .208-.128.4-.28l.344-.288.12.424c.376 1.312.376 1.296.288 4.888-.04 1.856-.104 3.576-.128 3.816-.048.416-.552 1.76-.664 1.76-.024 0-.152-.144-.28-.32-.136-.176-.264-.296-.296-.264-.032.04-.072.768-.088 1.624-.032 1.336-.064 1.624-.208 2.032-.096.256-.184.488-.208.504-.016.016-.256-.104-.536-.272-.664-.4-.792-.632-.872-1.584-.08-.936-.248-1.44-.608-1.864-.536-.632-.56-.784-.72-5.168-.056-1.648-.096-1.912-.296-1.952-.176-.032-.192.16-.336 3.744a352.04 352.04 0 0 1-.192 4.056c-.072 1.056-.088 1.088-.88 2.368-.576.928-.656 1.232-.728 2.576-.04.656-.12 1.56-.192 2-.064.44-.136.968-.168 1.168-.032.272-.112.432-.296.6-.416.392-.44.56-.504 2.712l-.064 2-.256.24c-.144.128-.408.376-.592.552-.24.216-.36.416-.44.72-.152.56-.256 2.6-.456 8.968-.184 5.672-.216 6.008-.528 5.944-.232-.04-.328-.696-.336-2.304-.008-.816-.096-2.504-.2-3.76-.28-3.28-.304-3.744-.32-6.72-.016-2.88-.056-3.208-.488-4.488-.184-.536-.224-.888-.4-3.712-.112-1.712-.248-3.392-.304-3.72-.08-.512-.12-.6-.256-.6-.224 0-.256.24-.28 2-.008.832-.056 1.696-.112 1.92l-.096.4-.144-.216c-.096-.144-.16-.456-.2-.936-.04-.4-.112-.776-.168-.848-.12-.144-.56-.16-.752-.016-.12.088-.136.192-.112.624.024.28.008 1.896-.032 3.592-.208 9.912-.52 18.608-.792 21.76-.104 1.28-.184 3.136-.232 5.84-.104 5.648-.144 6.856-.328 8.88-.176 2.064-.256 4.784-.432 14.44-.12 6.856-.136 7.24-.288 8.168l-.088.488-.544-.208-.552-.2-.056-.424c-.072-.592.024-1.408.256-2.072.248-.72.24-1.056-.016-1.696a8.26 8.26 0 0 1-.336-1.112c-.12-.56-.12-.656.016-1.6.208-1.432.104-2.152-.44-2.992-.24-.376-.24-.408-.44-2.64-.104-1.24-.208-2.28-.232-2.304-.024-.016-.184.04-.352.136a1.433 1.433 0 0 1-.584.176c-.424 0-.784.152-.872.376-.04.104-.072 1.32-.072 2.688 0 1.376-.04 4.208-.08 6.296s-.136 6.448-.2 9.68c-.072 3.232-.176 7.928-.248 10.44a998.137 998.137 0 0 0-.192 10c-.088 6.312-.176 8.088-.568 10.912-.152 1.112-.16 1.352-.08 8.4.064 5.208.064 7.928 0 9.68-.096 2.592-.016 5.888.2 8.144.08.84.096 1.928.072 4.12-.032 2.152-.008 3.92.096 6.344.168 4.168.136 9.688-.072 10.92a9.174 9.174 0 0 0-.128 1.24c-.008 1.064-.184 1.096-.648.12-.256-.544-.376-.72-.496-.72-.152 0-.152.048-.104 1.416.024.784.072 1.768.096 2.184.048.76.008.992-.392 2a.353.353 0 0 0-.016.2Zm22.528 15.592c.312-.152.576-.272.592-.256.016.016.04 2.08.056 4.584.016 3.608 0 4.688-.088 5.16-.12.664-.384 1.44-.488 1.44-.112 0-.328-.656-.376-1.16-.032-.336 0-.632.088-.936.176-.624.16-1.624-.104-4.744-.128-1.456-.232-2.904-.24-3.216l-.008-.584.568-.288Zm.792-6.344c.448-1.824.512-2.016.616-1.88.352.488.544 2.536.344 3.76-.112.704-.36 1.48-.504 1.568-.152.096-.64-.016-.848-.208-.168-.152-.184-.216-.144-.688.016-.288.264-1.432.536-2.552Zm18.944 57.392.064-.32.096.28c.208.568.296 1.856.2 2.84-.192 1.848-.408 1.32-.408-1-.008-.816.016-1.624.048-1.8Z"/><path fill="%23000" d="M22.896 70.376c.024.12.096.184.192.184.08 0 .152-.024.152-.064 0-.192.496-6.92.64-8.576.088-1.08.192-2.944.24-4.152.04-1.2.12-2.52.168-2.92.104-.904.384-2.144.472-2.088.032.024.144.336.24.696.176.648.184.736.128 3.264a359.927 359.927 0 0 1-.624 15.688c-.192 3.184-.184 3.248.288 3.416a.971.971 0 0 1 .4.296c.144.224.288 1.232.488 3.392.08.824.176 1.512.256 1.68l.128.288.12-.36c.184-.576.288-6.088.128-7.16-.096-.6-.112-1.144-.072-2.16.048-1.408.056-1.384-.408-5.64-.192-1.84-.208-2.104-.16-4.44.104-4.688.312-9.032.448-9.184.032-.032.264.024.52.136.256.12.48.208.496.208.04 0 .008-.344-.184-1.744-.128-.896-.128-.912.056-1.48s.184-.568.088-2.728a203.316 203.316 0 0 0-.192-3.608c-.072-1.096-.072-2.36 0-5.28.096-3.984.072-5.072-.192-9.76-.12-2.104-.128-2.552-.032-3.72.224-2.736.032-5.04-.496-6.112-.144-.28-.168-.296-.288-.184-.104.112-.192 1.144-.544 6.152-.712 10.128-.704 10-.912 10.344-.128.208-.2.264-.24.192-.032-.064-.208-.712-.4-1.456-.32-1.232-.36-1.336-.528-1.336-.168 0-.184.048-.248.696-.128 1.392-.072 8.824.096 12.144.192 3.744.192 6.968.008 10.208a210.613 210.613 0 0 0-.208 5.48c-.072 3.064-.088 9.344-.024 9.688Zm14.704-44.8c.088.208.16.264.328.264h.208l-.048-.704c-.088-1.104-.12-1.232-.32-1.2-.128.016-.176.104-.224.344-.088.512-.064 1.016.056 1.296Zm1.616-8.72c.096.248.184.064.184-.376 0-.376-.024-.48-.12-.48-.088 0-.12.096-.112.376 0 .216.024.432.048.48Zm1.896 6.424c.24 0 .264-.36.048-.64l-.16-.2v.416c0 .312.032.424.112.424Zm2.096-5.52h.216l-.056-.504c-.08-.688-.128-.856-.256-.856-.088 0-.112.152-.112.68v.68h.208Zm15.76-2.216c.168.168.272.04.272-.344 0-.304-.032-.4-.12-.4-.072 0-.12.072-.12.176s-.024.256-.048.344c-.024.088-.016.192.016.224Zm13.88 17.576c.344 1.368.472 2.144.552 3.376.048.72.264 3.68.48 6.584.216 2.904.432 5.872.48 6.6.12 1.928.216 2.832.56 5.24.376 2.616.496 3.696.76 6.76.184 2.12.424 3.76.6 4.072.112.208.184-1.576.136-3.392-.024-1-.16-2.904-.304-4.4-.272-2.808-.304-3.6-.2-5.32.08-1.32-.056-2.736-.464-4.84a37.181 37.181 0 0 1-.408-2.76c-.072-.728-.184-1.88-.248-2.56-.232-2.408-.984-7.544-1.24-8.52-.112-.424-.416-1.056-.672-1.392-.232-.32-.24-.264-.032.552ZM74.2 176.84c.056 1.168.248 2.632.4 3.032.056.152.064.152.192-.04.12-.192.12-.384.008-2.64-.152-3.16-.16-14.336-.008-16.032.056-.616.072-1.152.04-1.192-.144-.16-.288.032-.336.448-.296 2.472-.472 12.552-.296 16.424Zm.272-18.4.088.4.144-.352c.52-1.272.472-4.368-.08-5.968l-.144-.4-.048.84c-.088 1.472-.064 5.048.04 5.48Zm.096-19.6c.016.088.088.456.16.824.072.36.144.648.16.632.016-.016.072-.4.112-.856.096-.872.04-1.328-.208-1.904l-.136-.296-.056.24c-.064.256-.08 1.096-.032 1.36Zm.184-6.12c.224 0 .248-.072.152-.504-.112-.552-.304-.512-.304.064 0 .384.024.44.152.44Zm.736-28.2c.088 3.144.368 9.872.528 12.76.096 1.672.136 3.712.136 7 .008 4.304.016 4.68.16 5.136.08.28.184.504.224.504.04 0 .136-.136.208-.304.128-.272.136-.664.096-4.536-.064-7.832-.032-15 .112-20.04.272-10.168.352-14.576.28-15.568-.056-.8-.304-2.056-.504-2.592-.024-.08.064-.192.272-.336.368-.256.52-.688.44-1.216a96.31 96.31 0 0 0-.528-2.248c-.264-1.056-.496-2.184-.528-2.496-.032-.408-.088-.616-.184-.704-.12-.104-.16-.112-.208-.024-.104.16-.168 3.184-.232 10.264-.048 5.664-.072 6.64-.208 7.76-.168 1.392-.176 2.536-.064 6.64Zm1.184-29.096c.52 3.024.536 3.072.76 3.24l.224.16-.056-2.632a293.16 293.16 0 0 0-.112-4.048l-.048-1.408-.664.56c-.576.496-.656.592-.648.816.008.136.248 1.632.544 3.312Zm.648-11.568c.024.432.072.808.104.832.112.112.144-.208.12-1.176-.024-.816-.048-.992-.144-.992-.144 0-.16.248-.08 1.336Z"/></svg>